<svg xmlns="http://www.w3.org/2000/svg" aria-hidden="true" overflow="hidden" style="position:absolute;width:0;height:0">
    <defs>
        <symbol id="icon-menu" viewBox="0 0 32 32" xmlns="http://www.w3.org/2000/svg">
            <path fill-rule="evenodd" clip-rule="evenodd"
                d="M4.39999 9.33324C4.39999 8.81777 4.81786 8.3999 5.33333 8.3999H26.6667C27.1821 8.3999 27.6 8.81777 27.6 9.33324C27.6 9.8487 27.1821 10.2666 26.6667 10.2666H5.33333C4.81786 10.2666 4.39999 9.8487 4.39999 9.33324Z" />
            <path fill-rule="evenodd" clip-rule="evenodd"
                d="M4.39999 16C4.39999 15.4845 4.81786 15.0667 5.33333 15.0667H26.6667C27.1821 15.0667 27.6 15.4845 27.6 16C27.6 16.5154 27.1821 16.9333 26.6667 16.9333H5.33333C4.81786 16.9333 4.39999 16.5154 4.39999 16Z" />
            <path fill-rule="evenodd" clip-rule="evenodd"
                d="M4.39999 22.6665C4.39999 22.151 4.81786 21.7332 5.33333 21.7332H26.6667C27.1821 21.7332 27.6 22.151 27.6 22.6665C27.6 23.182 27.1821 23.5998 26.6667 23.5998H5.33333C4.81786 23.5998 4.39999 23.182 4.39999 22.6665Z" />
        </symbol>

        <symbol id="icon-close" viewBox="0 0 32 32" xmlns="http://www.w3.org/2000/svg">
            <path fill-rule="evenodd" clip-rule="evenodd"
                d="M8.74035 8.74042C9.10484 8.37593 9.69579 8.37593 10.0603 8.74042L23.2596 21.9398C23.6241 22.3042 23.6241 22.8952 23.2596 23.2597C22.8951 23.6242 22.3042 23.6242 21.9397 23.2597L8.74035 10.0604C8.37586 9.69587 8.37586 9.10491 8.74035 8.74042Z" />
            <path fill-rule="evenodd" clip-rule="evenodd"
                d="M8.74036 23.2597C8.37587 22.8952 8.37587 22.3043 8.74036 21.9398L21.9397 8.74045C22.3042 8.37596 22.8951 8.37596 23.2596 8.74045C23.6241 9.10494 23.6241 9.69589 23.2596 10.0604L10.0603 23.2597C9.69581 23.6242 9.10485 23.6242 8.74036 23.2597Z" />
        </symbol>




        <symbol id="icon-menu1" viewBox="0 0 32 32">
            <path
                d="M29.333 24.007c0 0.733-0.595 1.327-1.327 1.327h-10.68c-0.733 0-1.327-0.594-1.327-1.327s0.594-1.327 1.327-1.327h10.68c0.733 0 1.327 0.593 1.327 1.327zM29.333 16c0 0.733-0.595 1.327-1.327 1.327h-24.013c-0.733 0-1.327-0.594-1.327-1.327s0.594-1.327 1.327-1.327h24.013c0.733 0 1.327 0.595 1.327 1.327zM28.007 9.32c0.733 0 1.327-0.594 1.327-1.327s-0.594-1.327-1.327-1.327h-16.013c-0.733 0-1.327 0.594-1.327 1.327s0.594 1.327 1.327 1.327h16.013z">
            </path>
        </symbol>
        <symbol id="icon-close1" viewBox="0 0 24 24">
            <path stroke-linejoin="miter" stroke-linecap="round" stroke-miterlimit="4" stroke-width="2"
                d="M9 6l6 6 6-6M9 18l6-6 6 6"></path>
        </symbol>
    </defs>
</svg>